<svg xmlns="http://www.w3.org/2000/svg" width="100" height="100" viewBox="0 0 100 100"><g fill-rule="evenodd" transform="translate(5.224 7.068)"><path d="M60.5587528,59.5155344 C61.0573146,61.5472335 61.4903851,63.6154556 61.8400402,65.5887567 C62.4680402,69.1287567 62.8210402,72.3657567 62.8160926,74.5497567 C62.8160926,74.8157567 62.6500402,75.0527567 62.4000402,75.1427567 C60.364446,75.8706332 57.9655055,76.5601104 55.2537375,77.0967584 C55.3271172,77.7443458 55.3595228,78.4296177 55.3470402,79.1477567 C55.2860402,81.0877567 54.9820402,82.7747567 54.0340402,83.9587567 C53.3910402,84.7617567 52.4630402,85.3477567 51.1140402,85.6117567 C49.8760402,85.9277567 46.6590402,86.1637567 44.3880402,85.6447567 C43.9143705,85.5365101 43.4829236,85.390659 43.1110973,85.2081618 C42.7299786,85.3807849 42.2997775,85.5169636 41.8150402,85.6117567 C40.5780402,85.9277567 37.3610402,86.1637567 35.0900402,85.6447567 C33.7860402,85.3467567 32.8020402,84.7637567 32.5000402,83.9157567 C32.2490402,83.2097567 32.3350402,82.5747567 32.5890402,81.9977567 C32.9140402,81.2607567 33.5480402,80.6257567 34.0780402,80.0657567 C34.2900402,79.8417567 34.4820402,79.6327567 34.6150402,79.4317567 C34.6810402,79.3307567 34.7350402,79.2407567 34.7340402,79.1477567 C34.7263327,78.555565 34.7439733,77.9862461 34.7854017,77.4418119 C31.5168124,76.9352635 28.0938385,76.1389558 24.5490402,74.9817567 C24.3800402,74.9277567 24.2580402,74.7797567 24.2370402,74.6037567 C24.0298484,72.7571414 24.641381,68.9996441 25.7096814,64.7536181 L26.6770551,64.1214311 C25.6133392,68.3665437 24.9659379,72.2029767 25.1100402,74.2067567 C31.7450402,76.2647567 37.9300402,77.0497567 43.4520402,77.0629126 C50.8520402,77.0797567 57.0590402,75.7037567 61.5490402,74.1097567 C61.5000402,71.9977567 61.1350402,69.0367567 60.5620402,65.8147567 C60.3471612,64.604286 60.1018712,63.3574704 59.8311209,62.1049727 Z M35.8280881,77.5956266 L35.7976837,77.925229 C35.7669013,78.3192845 35.7485402,78.7270901 35.7430402,79.1477567 C35.7380402,79.5517567 35.4770402,79.9997567 35.0480402,80.4557567 C34.5340402,81.0027567 33.7710402,81.6107567 33.4080402,82.3737567 C33.2280402,82.7517567 33.1530402,83.1707567 33.3060402,83.6437567 C33.4180402,83.9937567 33.7190402,84.2577567 34.1220402,84.4737567 C34.6660402,84.7657567 35.3830402,84.9617567 36.1620402,85.0907567 C38.2010402,85.4277567 40.6540402,85.3037567 41.6880402,85.0747567 C41.9671109,84.9962379 42.2234412,84.9037306 42.4587381,84.7980379 C42.1451253,84.5465805 41.9183909,84.2520007 41.7990402,83.9157567 C41.5380402,83.1837567 41.6630402,82.5277567 41.9790402,81.9317567 C42.4220402,81.0947567 43.2970402,80.3907567 43.8990402,79.7797567 C44.0310402,79.6457567 44.1470402,79.5177567 44.2360402,79.3927567 C44.2980402,79.3057567 44.3510402,79.2287567 44.3500402,79.1477567 C44.3457597,78.8138794 44.3482548,78.4873161 44.3574084,78.1684273 L44.1302733,78.1708006 L44.1302733,78.1708006 L43.4450402,78.1667567 C41.023864,78.1386827 38.4789281,77.961518 35.8280881,77.5956266 Z M54.0842866,77.3142716 L53.5453097,77.4068219 C51.0518474,77.8189771 48.3249086,78.0950348 45.3987552,78.1573882 C45.379627,78.4777437 45.3683678,78.8085803 45.3640402,79.1477567 C45.3590402,79.5567567 45.0700402,80.0167567 44.5880402,80.4787567 C44.0250402,81.0177567 43.1950402,81.6177567 42.7690402,82.3657567 C42.5540402,82.7447567 42.4500402,83.1657567 42.6040402,83.6437567 C42.7160402,83.9937567 43.0180402,84.2577567 43.4200402,84.4737567 C43.9640402,84.7657567 44.6810402,84.9617567 45.4600402,85.0907567 C47.5000402,85.4277567 49.9520402,85.3037567 50.9860402,85.0747567 C52.4300402,84.6687567 53.2640402,83.8887567 53.7280402,82.8457567 C54.1820402,81.8227567 54.2780402,80.5557567 54.2350402,79.1477567 C54.2223564,78.5051097 54.1689562,77.8932482 54.0842866,77.3142716 Z M51.3330402,0.282756731 C60.6210402,1.40575673 69.8250402,6.07375673 75.8390402,12.8957567 C81.8700402,19.7377567 84.7040402,28.7327567 81.3030402,38.4877567 C82.9340402,38.6097567 86.4090402,39.0967567 88.9970402,41.0367567 C91.1400402,42.6437567 92.7120402,45.2147567 92.1960402,49.3517567 C92.1620402,49.6217567 91.9570402,49.8387567 91.6900402,49.8877567 C87.7860402,50.5937567 85.0600402,49.9957567 83.1560402,48.8817567 C80.3150531,47.2202788 79.2771277,44.3831248 78.9050154,42.7618816 C77.9067128,45.7599155 76.0912912,48.4438134 73.4650402,50.6427567 C70.7040402,52.9537567 67.0400402,54.7297567 62.4810402,55.7467567 C57.5340402,56.8507567 51.5240402,57.0597567 44.4680402,56.1187567 C30.6890402,54.4857567 21.7790402,49.9557567 17.4410402,43.9057567 C15.3118221,40.9360859 14.2693167,37.5972133 14.2864231,34.0394955 C13.7937027,35.2637652 12.1335744,38.6878235 8.63204019,39.8207567 C6.53704019,40.4987567 3.77504019,40.3707567 0.204040187,38.4247567 C0.0630401874,38.3477567 -0.0169598126,38.1917567 0.00304018737,38.0317567 C0.511040187,33.7937567 2.55804019,31.7007567 4.91704019,30.7167567 C7.88604019,29.4787567 11.3920402,30.0367567 13.0040402,30.3467567 L13.2660402,30.3967567 C11.8970402,19.8007567 16.7910402,11.6957567 24.3620402,6.52475673 C31.8800402,1.39075673 42.0520402,-0.836243269 51.3330402,0.282756731 Z M35.3790402,23.3017567 C32.6420402,27.0667567 29.6700402,29.8287567 26.4220402,31.6037567 C23.0019022,33.4726949 19.2734122,34.2496631 15.1805794,33.9437188 C15.1169583,37.3585146 16.0772379,40.5726174 18.0970402,43.4387567 C22.3030402,49.4077567 31.0350402,53.8557567 44.5350402,55.5717567 C51.5050402,56.3527567 57.4170402,56.0197567 62.2700402,54.8437567 C66.6290402,53.7877567 70.1230402,52.0447567 72.7460402,49.7947567 C75.2037224,47.6863165 76.8878054,45.1289434 77.7912761,42.2832709 C71.3150778,42.9824037 62.9221828,41.1336012 55.0390402,37.6407567 C47.1740402,34.1557567 39.8200402,29.0447567 35.3790402,23.3017567 Z"/><path d="M34.6490115,53.9017616 L36.4679031,54.266892 C34.3856954,61.3722021 47.4484175,61.8922789 49.7908454,56.2874554 L49.7908454,56.2874554 L53.0920308,56.2874554 C52.9247234,57.1840737 53.6725878,57.8708256 54.4528616,58.5546441 C56.7353517,60.1739023 46.4209901,65.9957269 51.4332819,67.6445453 C54.4590324,68.639881 57.3956727,66.5060203 60.2432028,61.2429634 C61.5305383,67.3163011 62.1742061,71.8020014 62.1742061,74.7000641 C50.6887454,78.3342647 38.2209061,78.3342647 24.7706883,74.7000641 C24.6596432,71.0936629 25.1822949,67.608896 26.3386436,64.2457633 C27.9059421,62.237793 29.2521213,60.6194287 30.377181,59.3906703 C32.5367424,58.3291307 33.9606859,56.4994944 34.6490115,53.9017616 L34.6490115,53.9017616 Z M55.0505551,69.0425699 C54.7375439,68.8759755 54.3448571,68.8961531 53.9588961,69.1103459 C53.604495,69.3064306 53.2511286,69.6592796 52.9924416,70.1259509 C52.6349362,69.7363683 52.215346,69.473025 51.8304198,69.3602375 C51.4191075,69.2396894 51.043494,69.2940136 50.787394,69.5164844 C50.5281896,69.7420595 50.4288538,70.1119818 50.4950777,70.5393327 C50.5535409,70.9180504 50.7454867,71.3443665 51.0574631,71.7365359 C50.5995872,71.9574546 50.239495,72.2668442 50.0216805,72.5886508 C49.7686847,72.9627122 49.7086693,73.3600553 49.8530166,73.6932441 C49.9983987,74.0269503 50.3367613,74.2525254 50.787394,74.3296141 C51.1583511,74.3937684 51.6095011,74.3534133 52.0678944,74.1971663 C52.1511916,74.6819457 52.3379636,75.1025707 52.5749209,75.4021302 C52.869824,75.7751568 53.2500938,75.9619288 53.6282942,75.9277821 C54.0106335,75.8931181 54.3469266,75.6318442 54.5657757,75.2065629 C54.7328875,74.881652 54.8306712,74.4553359 54.8265322,73.9860778 C55.2973425,74.0455758 55.7365929,73.9979774 56.0821987,73.8691513 C56.5411094,73.6984179 56.842221,73.3843719 56.9208619,73.0025499 C56.9963985,72.6238322 56.8473948,72.2171763 56.4955805,71.8788138 C56.2218897,71.6159878 55.8240291,71.3904128 55.3527015,71.2584824 C55.5467167,70.8238883 55.6284618,70.3877421 55.5979367,70.0188545 C55.5612032,69.5692566 55.3702922,69.214338 55.0505551,69.0425699 Z"/><path d="M32.1560402 58.1157567C30.9360402 58.5557567 29.9100402 59.3117567 29.0170402 60.1927567 28.6330402 60.5717567 28.2790402 60.9757567 27.9440402 61.3847567 27.2420402 62.2447567 26.6330402 63.1267567 26.0600402 63.8667567 25.6200402 64.4347567 25.2140402 64.9157567 24.7840402 65.2037567 24.3080402 65.5227567 23.8110402 65.4947567 23.1930402 64.9767567 22.6510402 64.5297567 22.5030402 63.8407567 22.5750402 63.0367567 22.6720402 61.9597567 23.1510402 60.6987567 23.8320402 59.4227567 25.3756489 56.530577 27.9365512 53.5650718 29.7096341 52.4974898 29.7643505 52.4645448 29.1958749 52.1222827 29.1480326 52.1517501 27.2372341 53.3286661 24.5937188 56.1224469 22.9440402 58.9237567 22.1230402 60.3157567 21.5550402 61.7137567 21.4070402 62.9127567 21.2520402 64.1607567 21.5560402 65.2117567 22.3790402 65.9337567 23.5730402 66.9677567 24.5720402 66.9077567 25.5070402 66.2827567 25.9510402 65.9867567 26.3860402 65.5327567 26.8170402 64.9707567 27.2760402 64.3727567 27.7410402 63.6497567 28.2460402 62.8947567 28.6830402 62.2427567 29.1480402 61.5677567 29.6720402 60.9287567 30.4220402 60.0137567 31.2770402 59.1687567 32.3730402 58.6227567 32.5130402 58.5637567 32.5780402 58.4007567 32.5180402 58.2607567 32.4580402 58.1217567 32.2960402 58.0567567 32.1560402 58.1157567zM54.3120402 58.5207567C54.5300402 58.8657567 54.5450402 59.2087567 54.4430402 59.5517567 54.2950402 60.0477567 53.8920402 60.5307567 53.4030402 61.0317567 52.8550402 61.5917567 52.1890402 62.1517567 51.5700402 62.7187567 50.8380402 63.3897567 50.1760402 64.0737567 49.7930402 64.7357567 49.2600402 65.6547567 49.2200402 66.5537567 49.9260402 67.4087567 50.4270402 67.9997567 51.1550402 68.3327567 52.0260402 68.3967567 52.9240402 68.4637567 53.9860402 68.2447567 55.0490402 67.7757567 57.1700402 66.8427567 59.3120402 64.9347567 60.1830402 62.6077567 60.9270402 60.5967567 60.9460402 58.8177567 60.6340402 57.3397567 60.5151253 56.7768541 60.3487907 56.2582754 60.1579538 55.788048 60.1241228 55.7046875 59.3897477 55.7551887 59.4163622 55.8244497 59.6070236 56.3206219 59.7694345 56.8764741 59.8710402 57.4847567 60.0970402 58.8367567 60.0140402 60.4497567 59.2640402 62.2457567 58.5700402 63.9207567 57.1090402 65.3017567 55.5570402 66.1707567 54.5230402 66.7507567 53.4470402 67.0967567 52.5230402 67.1237567 51.8560402 67.1427567 51.2740402 66.9997567 50.9150402 66.5717567 50.6590402 66.2757567 50.6350402 65.9627567 50.7500402 65.6377567 50.8900402 65.2427567 51.1800402 64.8397567 51.5310402 64.4217567 52.1320402 63.7077567 52.9080402 62.9707567 53.5780402 62.2357567 54.1010402 61.6597567 54.5610402 61.0867567 54.8450402 60.5287567 55.2650402 59.7017567 55.3410402 58.9127567 54.7590402 58.1977567 54.6700402 58.0747567 54.4980402 58.0467567 54.3740402 58.1357567 54.2510402 58.2257567 54.2230402 58.3977567 54.3120402 58.5207567zM47.3740402 52.9497567C47.4640402 52.9607567 47.5540402 52.9267567 47.6140402 52.8587567 47.6740402 52.7907567 47.6970402 52.6977567 47.6750402 52.6097567 47.6750402 52.6097567 47.4870402 51.4167567 47.0190402 50.0847567 46.8270402 49.5397567 46.5830402 48.9777567 46.2940402 48.4637567 45.9620402 47.8717567 45.5590402 47.3527567 45.1120402 46.9807567 44.7110402 46.6457567 44.2620402 46.4397567 43.7870402 46.3717567 43.3090402 46.3117567 42.8210402 46.4007567 42.3430402 46.6187567 41.8110402 46.8617567 41.2850402 47.2647567 40.8040402 47.7487567 39.3600402 49.1997567 38.2760402 51.3617567 38.2760402 51.3617567 38.1940402 51.5177567 38.1930402 51.7037567 38.2740402 51.8597567 38.3560402 52.0167567 38.5090402 52.1227567 38.6840402 52.1437567L47.3740402 52.9497567zM46.9870402 52.3327567C46.8220402 51.9087567 46.5310402 51.2047567 46.1510402 50.4557567 45.9130402 49.9857567 45.6400402 49.5017567 45.3360402 49.0577567 45.0860402 48.6937567 44.8140402 48.3627567 44.5200402 48.1027567 44.2460402 47.8597567 43.9530402 47.6857567 43.6300402 47.6527567 43.3100402 47.6137567 42.9910402 47.7267567 42.6720402 47.9017567 42.3320402 48.0887567 41.9980402 48.3507567 41.6790402 48.6497567 40.8150402 49.4607567 40.0620402 50.5287567 39.6250402 51.2057567L46.9870402 52.3327567zM39.6980402 37.9797567C39.6980402 37.9797567 39.4330402 38.0707567 39.0050402 38.0257567 38.8630402 38.0107567 38.7180402 37.9437567 38.5330402 37.8687567 38.3840402 37.8077567 38.2180402 37.7297567 38.0400402 37.6117567 37.5170402 37.3417567 37.0010402 36.9437567 36.5460402 36.5547567 35.7460402 35.8707567 35.1460402 35.2327567 35.1460402 35.2327567 35.0580402 35.1087567 34.8860402 35.0797567 34.7620402 35.1687567 34.6380402 35.2567567 34.6090402 35.4297567 34.6980402 35.5537567 34.6980402 35.5537567 35.2620402 36.5827567 36.1040402 37.5567567 36.4780402 37.9897567 36.9170402 38.3887567 37.3590402 38.7097567 37.5920402 38.8497567 37.8060402 38.9627567 38.0130402 39.0237567 38.2990402 39.1087567 38.5550402 39.1417567 38.7830402 39.1187567 39.0290402 39.0947567 39.2360402 39.0557567 39.4080402 38.9677567 39.6120402 38.8627567 39.7690402 38.7677567 39.8760402 38.6497567 40.0220402 38.4887567 40.0780402 38.3767567 40.0780402 38.3767567 40.2140402 38.2277567 40.2020402 38.0537567 40.0880402 37.9537567 39.9730402 37.8537567 39.7990402 37.8647567 39.6980402 37.9797567zM52.8760402 40.7437567C52.8760402 40.7437567 52.9940402 40.9627567 53.3600402 41.2007567 53.5060402 41.2957567 53.6940402 41.3577567 53.9420402 41.4097567 54.2170402 41.4677567 54.5590402 41.4617567 54.9810402 41.3727567 55.1720402 41.3327567 55.3750402 41.2537567 55.5970402 41.1637567 56.1200402 40.8897567 56.6610402 40.5207567 57.1400402 40.1047567 58.1980402 39.1827567 58.9850402 38.1447567 58.9850402 38.1447567 59.0910402 38.0347567 59.0870402 37.8607567 58.9770402 37.7547567 58.8680402 37.6497567 58.6930402 37.6527567 58.5870402 37.7627567 58.5870402 37.7627567 57.8320402 38.3857567 56.8580402 39.0147567 56.5720402 39.1987567 56.2680402 39.3757567 55.9610402 39.5467567 55.6630402 39.7127567 55.3630402 39.8647567 55.0680402 39.9787567 54.8160402 40.1077567 54.5940402 40.1907567 54.4000402 40.2537567 54.2340402 40.3067567 54.1010402 40.3637567 53.9740402 40.3847567 53.5200402 40.4627567 53.3060402 40.3987567 53.3060402 40.3987567 53.2110402 40.2797567 53.0370402 40.2607567 52.9190402 40.3557567 52.8000402 40.4517567 52.7810402 40.6247567 52.8760402 40.7437567z"/><circle cx="33.06" cy="41.317" r="2.979"/><circle cx="58.025" cy="44.875" r="2.979"/><path d="M10.2130402,48.8067567 L3.25504019,45.9427567 C3.14304019,45.8987567 3.07304019,45.7867567 3.08104019,45.6677567 C3.09004019,45.5477567 3.17504019,45.4467567 3.29204019,45.4187567 L12.5930402,42.9107567 C12.8640402,42.8457567 13.1390402,42.9977567 13.2290402,43.2607567 C13.2290402,43.2607567 13.6710402,44.4807567 14.4060402,45.8637567 C14.8280402,46.6587567 15.3470402,47.5097567 15.9440402,48.2037567 C16.5360402,48.8987567 17.2980402,49.5387567 18.0160402,50.0787567 C19.2620402,51.0147567 20.3930402,51.6387567 20.3930402,51.6387567 C20.6730402,51.7927567 20.8000402,52.1267567 20.6920402,52.4277567 L17.4100402,61.3687567 C17.3230402,61.6107567 17.0890402,61.7687567 16.8320402,61.7587567 C16.5750402,61.7497567 16.3530402,61.5757567 16.2840402,61.3277567 L14.2860402,53.9207567 L8.43204019,55.0157567 C8.27304019,55.0467567 8.10904019,54.9887567 8.00404019,54.8647567 C7.90004019,54.7397567 7.87204019,54.5677567 7.93204019,54.4167567 L10.2130402,48.8067567 Z M12.3660402,44.0577567 L4.32504019,45.7637567 L10.8320402,48.2607567 C11.0220402,48.3357567 11.1150402,48.5507567 11.0400402,48.7407567 L9.05004019,53.9777567 L14.5590402,52.8247567 C14.8220402,52.7727567 15.0810402,52.9317567 15.1540402,53.1897567 L16.9090402,59.2377567 L19.2910402,52.4987567 C18.8170402,52.2147567 18.0470402,51.7267567 17.2360402,51.1067567 C16.4510402,50.5057567 15.6310402,49.7797567 14.9900402,49.0037567 C14.4810402,48.3837567 14.0230402,47.6597567 13.6380402,46.9407567 C13.0210402,45.7897567 12.5830402,44.6617567 12.3660402,44.0577567 Z"/></g></svg>